<?xml version="1.0" encoding="UTF-8" standalone="no"?>
<svg
   xmlns:dc="http://purl.org/dc/elements/1.1/"
   xmlns:cc="http://creativecommons.org/ns#"
   xmlns:rdf="http://www.w3.org/1999/02/22-rdf-syntax-ns#"
   xmlns:svg="http://www.w3.org/2000/svg"
   xmlns="http://www.w3.org/2000/svg"
   xmlns:sodipodi="http://sodipodi.sourceforge.net/DTD/sodipodi-0.dtd"
   xmlns:inkscape="http://www.inkscape.org/namespaces/inkscape"
   version="1.1"
   id="svg2"
   xml:space="preserve"
   viewBox="0 0 945.20001 251.67999"
   sodipodi:docname="logo_Relias_white.eps"><metadata
     id="metadata8"><rdf:RDF><cc:Work
         rdf:about=""><dc:format>image/svg+xml</dc:format><dc:type
           rdf:resource="http://purl.org/dc/dcmitype/StillImage" /></cc:Work></rdf:RDF></metadata><defs
     id="defs6" /><sodipodi:namedview
     pagecolor="#ffffff"
     bordercolor="#666666"
     borderopacity="1"
     objecttolerance="10"
     gridtolerance="10"
     guidetolerance="10"
     id="namedview4" /><g
     id="g10"
     transform="matrix(1.3333333,0,0,-1.3333333,0,251.68)"><g
       id="g12"
       transform="scale(0.1)"><path
         d="m 6648.47,187.93 c -28.19,5.371 -56.9,8.84 -84.44,16.531 -55.08,15.34 -109.51,33 -164.24,49.648 -6.06,1.832 -12.25,3.352 -18.47,4.602 -25.01,5.078 -39.8,-0.981 -53.8,-22.27 -3.48,-5.281 -6.95,-10.839 -8.99,-16.761 -3.01,-8.801 -8.05,-12.211 -17.41,-11.348 -9.11,0.84 -18.36,0.18 -28.28,0.18 0,126.679 0,251.918 0,378.258 12.91,0 25.8,0 38.68,0 3.36,-26.192 5.4,-52.481 10.26,-78.231 26.79,-142.027 151.17,-253.07 295.25,-265.34 60.57,-5.16 119.42,0.629 175.31,25.289 147.59,65.121 177.65,240.071 99.12,357.16 -31.65,47.223 -72.57,85.243 -118.57,117.063 -75.26,52.039 -152.61,101.078 -228.84,151.758 -57.51,38.23 -115.78,75.715 -162.87,127.191 -62.54,68.39 -94.53,149.62 -100.67,241.8 -4.33,64.95 1.44,128.46 28.27,188.21 49.59,110.42 136.58,175.35 253.65,200.15 97.85,20.73 193.68,7.5 288.06,-22.1 24.69,-7.75 49.77,-14.48 75.03,-20.09 22.39,-4.98 34.55,0.98 40.14,20.94 4.15,14.81 12.1,17.98 25.38,16.41 6.23,-0.74 12.61,-0.12 19.98,-0.12 0,-110.13 0,-219.11 0,-328.94 -13.93,0 -27.39,0 -41.49,0 -6.07,46.68 -16.1,91.88 -38.4,133.4 -49.77,92.69 -128.19,142.54 -231.83,154.16 -55.3,6.2 -109.83,2.06 -161.64,-19.03 -122.84,-50 -152.87,-163.05 -116.67,-272.5 18.94,-57.27 57.61,-100.37 103.54,-137.84 70.46,-57.5 148.48,-103.59 225.58,-151.17 80.52,-49.706 158.33,-103.12 226.65,-169.44 152.19,-147.68 143.18,-390.289 11.47,-533.051 -67.22,-72.859 -147.46,-119.961 -246.91,-131.808 -1.63,-0.2 -3.1,-1.77 -4.64,-2.711 -29.41,0 -58.82,0 -88.21,0"
         style="fill:#ffffff;fill-opacity:1;fill-rule:evenodd;stroke:none"
         id="path14" /><path
         d="m 4690.09,267.34 c 60.81,-1.352 112.05,18.129 140.82,74.469 28.85,56.5 55.69,114.261 79.58,173.031 183.05,450.301 365.17,900.99 547.6,1351.55 2.36,5.81 4.98,11.52 9.18,21.22 C 5697.56,1256.68 5926.61,629.148 6155.67,1.64063 6154.35,1.08984 6153.05,0.550781 6151.73,0 c -229.51,481.871 -459.04,963.715 -689.55,1447.65 -30.88,-76.9 -60.74,-151.31 -90.65,-225.71 -108.88,-270.85 -217.8,-541.702 -326.65,-812.569 -10.08,-25.082 -18.2,-50.441 -14.99,-78.281 4.09,-35.481 25.27,-55.129 58.06,-63.57 15.03,-3.86 30.72,-5.192 46.73,-7.77 0,-10.41 0,-21.441 0,-33.461 -40.76,0 -80.32,-0.23 -119.89,0.051 -108.24,0.801 -216.47,1.832 -324.7,2.769 0,12.743 0,25.481 0,38.231"
         style="fill:#ffffff;fill-opacity:1;fill-rule:evenodd;stroke:none"
         id="path16" /><path
         d="m 6273.65,1044.46 c -0.99,2.91 8.98,1.81 -3.22,0 C 5051.86,863.059 4591.05,717.672 4580.99,717.672 c 0,0 -43.52,-130.91 -27.64,-290.582 0.19,-2.02 13.97,5.23 16.34,6.25 464.49,201.019 875.37,333.711 1703.83,606 2.8,0.92 1.63,0.79 0.13,5.12"
         style="fill:#ffffff;fill-opacity:1;fill-rule:nonzero;stroke:none"
         id="path18" /><path
         d="m 3912.07,224.211 c 0,13.059 0,25.578 0,39.309 14.91,1.539 29.96,2.152 44.64,4.769 61.71,11 92.07,40.352 103.46,103.691 5.68,31.622 9.39,64.079 9.46,96.18 0.7,304.262 0.88,608.52 -0.18,912.77 -0.13,37.8 -4.97,76.39 -13.68,113.18 -13.26,56.02 -48.05,82.27 -105.61,87.69 -12.15,1.15 -24.31,2.21 -37.68,3.42 0,12.79 0,25.68 0,39.81 167.43,0 335.09,0 503.65,0 0,-13.12 0,-26.05 0,-38.98 -17.83,-2.44 -35.33,-3.85 -52.4,-7.35 -45.05,-9.23 -74.87,-35.74 -88.88,-80.06 -12.85,-40.61 -16.77,-82.46 -16.82,-124.57 -0.35,-300.34 -0.74,-600.679 0.48,-901.011 0.15,-39.207 5.9,-79.219 15.19,-117.368 13.32,-54.722 51.41,-83.23 107.54,-88.543 11.18,-1.046 22.37,-2.097 34.68,-3.257 0,-12.75 0,-25.7 0,-39.68 -167.62,0 -335.33,0 -503.85,0"
         style="fill:#ffffff;fill-opacity:1;fill-rule:evenodd;stroke:none"
         id="path20" /><path
         d="m 3788.64,528.449 c 13.97,0 27.57,0 42.56,0 -28.67,-101.871 -57.12,-202.961 -85.68,-304.41 -338.93,0 -677.32,0 -1016.44,0 0,13.34 0,25.891 0,39.5 13.48,1.621 27.03,2.5 40.28,4.949 62.15,11.461 94.33,52.91 105.61,111.512 6.8,35.371 11.55,71.77 11.66,107.719 0.9,300.89 0.85,601.781 0.02,902.671 -0.1,32.5 -4.43,65.55 -11.36,97.36 -12.81,58.85 -50.03,88.91 -110.31,94.21 -11.62,1.01 -23.24,2.13 -35.72,3.27 0,13.26 0,26.2 0,40.09 166.87,0 333.27,0 500.81,0 0,-12.88 0,-25.81 0,-39.81 -12.78,-1.5 -25.82,-2.43 -38.64,-4.63 -62.45,-10.65 -94.8,-51.59 -106.36,-110.4 -6.01,-30.53 -9.84,-62.05 -9.91,-93.14 -0.7,-318.53 -0.58,-637.059 -0.07,-955.602 0.03,-20.777 3.31,-41.968 8.2,-62.218 7.24,-30.02 27.45,-50.829 57.6,-56.551 33.91,-6.41 68.65,-11.071 103.1,-11.578 95.54,-1.403 191.11,-0.93 286.66,0.308 27.7,0.36 55.56,4.59 82.96,9.281 55.54,9.481 96.25,40.489 119.99,91.379 17.55,37.602 32.2,76.563 47.96,114.981 2.76,6.73 4.65,13.801 7.08,21.109"
         style="fill:#ffffff;fill-opacity:1;fill-rule:evenodd;stroke:none"
         id="path22" /><path
         d="m 0,1625.84 c 50.4688,0.14 100.941,0.42 151.414,0.39 152.902,-0.06 305.82,1.32 458.688,-0.92 106.25,-1.56 206.582,-27.22 293.687,-91.81 71.992,-53.38 122.001,-122.19 135.421,-212.24 17.55,-117.76 -5.21,-224.52 -96.538,-308.65 -48.438,-44.622 -106.699,-72.141 -168.613,-92.637 -4.168,-1.375 -8.34,-2.735 -12.442,-4.278 -0.789,-0.293 -1.258,-1.406 -2.129,-2.449 29.688,-22.305 59.379,-44.547 88.989,-66.887 85.07,-64.187 155.193,-143.418 224.863,-223.148 63.15,-72.262 125.45,-145.332 190.56,-215.801 63.24,-68.461 143.18,-109.551 233.73,-130.422 32.97,-7.609 66.92,6.782 86.43,37.532 17.51,27.55 23.9,58.89 26.98,90.64 2.84,29.18 4.11,58.621 4.14,87.949 0.29,289.641 0.69,579.271 -0.4,868.901 -0.16,42.27 -4.57,85.19 -13.02,126.59 -12.03,58.91 -48.87,87.65 -109.12,93.35 -11.63,1.1 -23.27,2.16 -35.78,3.33 0,13.21 0,26.15 0,40.06 336.5,0 672.44,0 1009.52,0 0,-77.66 0,-155.26 0,-233.79 -8.1,0 -16.19,0 -24.65,0 -6.09,20.4 -12.2,40.93 -18.34,61.45 -18.61,62.29 -61.03,94.73 -125.25,99.29 -33.18,2.35 -66.4,5.47 -99.61,5.64 -128.4,0.66 -256.8,0.27 -385.2,0.25 -2.91,0 -5.82,-0.23 -9.96,-0.42 0,-199.28 0,-398.3 0,-598.987 5.63,0 10.88,0 16.14,0 127.41,0 254.83,-0.222 382.24,0.258 17.99,0.074 36.14,2.598 53.89,5.793 34.65,6.231 58.58,26.567 70.13,59.806 7.04,20.25 12.53,41.12 17.32,62.02 1.82,7.9 4.38,10.84 12.29,10.45 10.16,-0.51 20.38,-0.12 31.42,-0.12 0,-115.164 0,-229.05 0,-343.699 -14.01,0 -27.48,0 -41.27,0 -4.57,14.789 -8.7,29.289 -13.54,43.571 -22.89,67.507 -48.3,87.878 -119.89,90.597 -67.04,2.543 -134.17,2.645 -201.26,3.149 -63.71,0.492 -127.41,0.109 -191.12,0.109 -5.28,0 -10.56,0 -17.6,0 0,-6.535 0,-11.746 0,-16.969 0,-162.207 -0.01,-324.429 0.06,-486.636 0.01,-8.813 -0.08,-17.743 1.32,-26.383 7.83,-48.188 34.2,-68.91 91.17,-69.25 100.45,-0.637 200.92,-0.969 301.36,0.222 37.08,0.438 74.37,3.731 111.1,8.911 61.51,8.628 105.67,44 136.42,96.699 14.29,24.488 27.6,49.609 40.02,75.09 4.49,9.218 8.86,13.871 19.47,12.75 9.14,-0.981 18.46,-0.2 29.59,-0.2 -9.08,-36.57 -17.81,-71.543 -26.42,-106.55 -11.57,-47.012 -23.41,-93.969 -34.27,-141.153 -2.58,-11.207 -7.13,-14.34 -18.56,-14.308 -235.73,0.379 -471.46,0.32 -707.18,0.269 -70.56,-0.008 -141.14,-1.07 -211.69,-0.16 -60.6,0.781 -121.24,2.539 -181.75,5.871 -101.62,5.621 -187.61,48.34 -266.29,111.16 -69.56,55.52 -125.544,123.352 -184.04,189.219 -62.758,70.66 -123.641,143.32 -190.481,209.941 -52.844,52.68 -113.469,97.54 -170.652,145.872 -1.469,1.238 -3.02,2.398 -6.727,5.332 7.149,2.468 12.7,4.472 18.301,6.32 68.176,22.398 130.332,55.355 184.899,102.586 52.992,45.87 87.761,102.11 101.367,170.96 13.926,70.52 13.566,140.62 -14.235,207.9 -36.777,89.03 -105.066,144.13 -195.113,174.12 -43.16,14.38 -87.984,18.86 -133.043,19.91 -47.019,1.1 -94.086,0.25 -141.133,0.22 -2.359,0 -4.726,-0.37 -9.031,-0.73 0,-5.76 0,-10.95 0,-16.15 0,-360.2 -0.352,-720.41 0.535,-1080.609 0.094,-36.383 4.742,-73.383 12.43,-108.981 13.422,-62.191 54.777,-94.742 118.516,-98.98 28.363,-1.891 28.382,-1.891 28.109,-30.289 -0.043,-3.84 -0.348,-7.699 -0.625,-13.492 -168.793,0 -337.168,0 -505.547,0 0,13.73 0,27.453 0,41.172 10.707,0.937 21.4063,2.031 32.1289,2.757 62.8086,4.262 101.3281,33.661 114.2421,94.934 8.41,39.898 12.727,81.359 12.871,122.148 1.047,295.461 0.91,590.93 0.121,886.4 -0.09,36.98 -4.222,74.25 -9.945,110.84 -7.73,49.38 -33.621,85.73 -85.4258,96.51 -20.8906,4.35 -42.6367,4.59 -63.9922,6.69 0,13.73 0,27.45 0,41.17"
         style="fill:#ffffff;fill-opacity:1;fill-rule:evenodd;stroke:none"
         id="path24" /></g></g></svg>
